<svg xmlns="http://www.w3.org/2000/svg" width="44" height="44" viewBox="0 0 44 44"><defs><style>.a{fill:#4c9f70;}.b{fill:#fff;stroke:#fff;stroke-width:0.5px;}</style></defs><rect class="a" width="44" height="44" rx="7"/><g transform="translate(6.619 13.54)"><path class="b" d="M84.631,85.782a4.407,4.407,0,0,0-3.308-1.406H78.176V82.66a.755.755,0,0,0-.75-.76H62.449a.757.757,0,0,0-.752.76v2.648H58.77a.76.76,0,0,0,0,1.519h3.677a.759.759,0,0,0,.75-.76V83.414h13.48V95.325H69.619a.543.543,0,0,0-.1,0,2.5,2.5,0,0,0-4.676.013.68.68,0,0,0-.161-.019H63.2V92.666a.757.757,0,0,0-.75-.76H58.777a.76.76,0,0,0,0,1.519H61.7V96.07a.759.759,0,0,0,.752.762h2.272a2.512,2.512,0,0,0,4.914,0h8.99a2.512,2.512,0,0,0,4.914,0h1.678a.757.757,0,0,0,.75-.762V89.764A5.8,5.8,0,0,0,84.631,85.782ZM67.186,97.315a1.034,1.034,0,1,1,1.021-1.034A1.027,1.027,0,0,1,67.186,97.315Zm13.9,0a1.034,1.034,0,1,1,1.021-1.034,1.039,1.039,0,0,1-.3.732A1.013,1.013,0,0,1,81.091,97.315Zm3.385-1.99H83.423a2.5,2.5,0,0,0-4.664,0h-.576V85.9h3.145c1.972,0,3.147,1.453,3.147,3.875Z" transform="translate(-55.214 -81.9)"/><path class="b" d="M63.489,110.358a.679.679,0,0,1-.2.523l-2.314,2.312a.7.7,0,0,1-.991,0l-.192-.19a.7.7,0,0,1,0-.993l.781-.781H44.993a.7.7,0,0,1-.7-.7v-.274a.7.7,0,0,1,.7-.7H60.64l-.85-.848a.695.695,0,0,1,0-.989l.192-.2a.7.7,0,0,1,.991,0l2.314,2.312a.685.685,0,0,1,.2.525.679.679,0,0,0-.2-.47l-.194-.192a.7.7,0,0,0-.781-.143h.315a.7.7,0,0,1,.705.7v.274a.7.7,0,0,1-.086.335l.035-.037A.679.679,0,0,0,63.489,110.358Z" transform="translate(-44.29 -102.833)"/></g></svg>