<svg xmlns="http://www.w3.org/2000/svg" width="26.992" height="21.456" viewBox="0 0 26.992 21.456"><defs><style>.a,.b{fill:#4c9f70;}.a{stroke:#4c9f70;stroke-width:0.5px;}.b{font-size:5px;font-family:Inter-Black, Inter;font-weight:800;letter-spacing:0.005em;}</style></defs><g transform="translate(-411.298 -1075.566)"><g transform="translate(411.548 1075.855)"><path class="a" d="M13.248,54.431a10.434,10.434,0,1,0,0,20.094,10.433,10.433,0,1,0,0-20.094ZM1.558,64.478a8.883,8.883,0,0,1,9.02-8.872,10.425,10.425,0,0,0,0,17.745A8.883,8.883,0,0,1,1.558,64.478Zm14.5,8.874a8.874,8.874,0,1,1,8.874-8.874A8.884,8.884,0,0,1,16.06,73.352Z" transform="translate(0 -54.039)"/></g><text class="b" transform="translate(424 1088)"><tspan x="0" y="0">IDR</tspan></text></g></svg>