<svg xmlns="http://www.w3.org/2000/svg" width="20.844" height="19.148" viewBox="0 0 20.844 19.148"><defs><style>.a{fill:#4c9f70;stroke:#4c9f70;stroke-width:0.5px;}</style></defs><path class="a" d="M16.106,1H4.238A4.243,4.243,0,0,0,0,5.238V15.41a4.243,4.243,0,0,0,4.238,4.238H16.106a4.243,4.243,0,0,0,4.238-4.238V5.238A4.243,4.243,0,0,0,16.106,1ZM4.238,2.7H16.106a2.543,2.543,0,0,1,2.356,1.6l-6.491,6.492a2.549,2.549,0,0,1-3.6,0L1.882,4.295A2.543,2.543,0,0,1,4.238,2.7ZM16.106,17.953H4.238A2.543,2.543,0,0,1,1.7,15.41V6.51l5.479,5.476a4.244,4.244,0,0,0,5.995,0L18.648,6.51v8.9A2.543,2.543,0,0,1,16.106,17.953Z" transform="translate(0.25 -0.75)"/></svg>