<svg xmlns="http://www.w3.org/2000/svg" width="15.109" height="16.242" viewBox="0 0 15.109 16.242"><defs><style>.a{stroke:#fff;stroke-width:0.2px;}</style></defs><path class="a" d="M8.352,10.694a2.005,2.005,0,0,0,.9-.21l1.337-.668a2,2,0,0,0,1.108-1.8V6.038a2,2,0,0,0-1.108-1.793L9.249,3.576a2.015,2.015,0,0,0-1.793,0l-1.337.668A2,2,0,0,0,5.01,6.038V8.021A2,2,0,0,0,6.118,9.815l1.337.668a2.005,2.005,0,0,0,.9.211ZM6.347,8.021V6.038a.668.668,0,0,1,.034-.2l1.457.729a1.15,1.15,0,0,0,1.028,0l1.457-.729a.668.668,0,0,1,.034.2V8.021a.664.664,0,0,1-.37.6l-1.337.668a.674.674,0,0,1-.6,0L6.716,8.619a.664.664,0,0,1-.369-.6ZM13.031,14.7H11.22l2.331-2.154a7.352,7.352,0,1,0-10.379.019L5.484,14.7H3.673a.668.668,0,0,0,0,1.337h9.358a.668.668,0,0,0,0-1.337ZM4.1,3.1a6.016,6.016,0,0,1,8.527,8.489l-2.664,2.46a2.348,2.348,0,0,1-3.233-.011L4.1,11.606A6.022,6.022,0,0,1,4.1,3.1Z" transform="translate(-0.798 0.1)"/></svg>