<svg xmlns="http://www.w3.org/2000/svg" width="20.5" height="24.5" viewBox="0 0 20.5 24.5"><defs><style>.a{fill:#439565;stroke:#439565;stroke-width:0.5px;}</style></defs><path class="a" d="M19.95,5.536,16.464,2.05A6.954,6.954,0,0,0,11.515,0H7A5.006,5.006,0,0,0,2,5V19a5.006,5.006,0,0,0,5,5H17a5.006,5.006,0,0,0,5-5V10.485a6.954,6.954,0,0,0-2.05-4.949ZM18.536,6.95A5.018,5.018,0,0,1,19.317,8H15a1,1,0,0,1-1-1V2.683a5.018,5.018,0,0,1,1.05.781ZM20,19a3,3,0,0,1-3,3H7a3,3,0,0,1-3-3V5A3,3,0,0,1,7,2h4.515c.165,0,.323.032.485.047V7a3,3,0,0,0,3,3h4.953c.015.162.047.32.047.485Zm-3.276-5.689a1,1,0,0,1-.035,1.413L13.1,18.138a3,3,0,0,1-4.226-.017l-1.54-1.374a1,1,0,1,1,1.332-1.494l1.585,1.414a1,1,0,0,0,1.456.04l3.6-3.431a1,1,0,0,1,1.417.035Z" transform="translate(-1.75 0.25)"/></svg>