<svg xmlns="http://www.w3.org/2000/svg" width="44" height="44" viewBox="0 0 44 44"><defs><style>.a{fill:#eff8f1;opacity:0.999;}.b{fill:#4c9f70;stroke:#4b9f70;stroke-width:0.5px;}</style></defs><g transform="translate(-30 -29)"><rect class="a" width="44" height="44" rx="7" transform="translate(30 29)"/><g transform="translate(40 39)"><path class="b" d="M12,12A6,6,0,1,0,6,6a6,6,0,0,0,6,6ZM12,2A4,4,0,1,1,8,6a4,4,0,0,1,4-4Z"/><path class="b" d="M12,14a9.01,9.01,0,0,0-9,9,1,1,0,1,0,2,0,7,7,0,1,1,14,0,1,1,0,0,0,2,0A9.01,9.01,0,0,0,12,14Z"/></g></g></svg>